# xmcd CD database file
#
# Track frame offsets:
#	150
#	17247
#	33213
#	51363
#	67808
#	82536
#	103844
#	119642
#	137414
#	160090
#	175086
#	193898
#	208645
#	228191
#	241019
#
# Disc length: 3419 seconds
#
# Revision: 1
# Processed by: cddbd v1.5PL3 Copyright (c) Steve Scherf et al.
# Submitted via: CDex 1.51
#
DISCID=ba0d590f
DTITLE=Bill Wyman's Rhythm Kings - Just For A Thrill
DYEAR=2004
DGENRE=Rhythm and Blues
TTITLE0=Disappearing Nightly
TTITLE1=Roll 'em Pete
TTITLE2=Down Home Girl
TTITLE3=Mississippi River
TTITLE4=That's How Heartaches Are Made
TTITLE5=Booty Ooty
TTITLE6=Cadillac Woman
TTITLE7=Town Living
TTITLE8=This Ain't United Nations
TTITLE9=Memphis Woman
TTITLE10=Taxman
TTITLE11=Just For A Thrill
TTITLE12=Cry Baby
TTITLE13=You Don't Know
TTITLE14=Jittebug Boogie (live bonus track)
EXTD=YEAR: 2004
EXTT0=
EXTT1=
EXTT2=
EXTT3=
EXTT4=
EXTT5=
EXTT6=
EXTT7=
EXTT8=
EXTT9=
EXTT10=
EXTT11=
EXTT12=
EXTT13=
EXTT14=
PLAYORDER=
